<svg width="190" height="190" viewBox="0 0 190 190" fill="none" xmlns="http://www.w3.org/2000/svg">
<path fill-rule="evenodd" clip-rule="evenodd" d="M0 95C0 42.5356 42.533 0 95 0C147.467 0 190 42.5356 190 95C190 147.464 147.467 190 95 190C42.533 190 0 147.464 0 95ZM79.127 68.4636H52.588C45.257 68.4636 39.314 62.5225 39.314 55.1938C39.314 47.8651 45.257 41.9239 52.588 41.9239H94.795C94.882 41.9226 94.968 41.9219 95.054 41.9219C95.091 41.9219 95.127 41.922 95.164 41.9222C95.214 41.9226 95.264 41.9231 95.313 41.9239H137.533C144.864 41.9239 150.807 47.8651 150.807 55.1938C150.807 62.5225 144.864 68.4636 137.533 68.4636H110.982V108.272C110.982 108.662 110.574 108.907 110.207 108.775C109.299 108.448 108.32 108.27 107.299 108.27C102.562 108.27 98.723 112.108 98.723 116.843V118.273C98.723 119.144 98.853 119.984 99.094 120.775C99.505 122.125 99.004 123.766 97.61 123.991C96.778 124.125 95.924 124.195 95.054 124.195C93.692 124.195 92.37 124.024 91.107 123.702C89.405 123.268 89.448 120.947 90.679 119.694C92.562 117.778 93.724 115.152 93.724 112.254C93.724 106.392 88.97 101.639 83.106 101.639C82.788 101.639 82.472 101.653 82.161 101.68C80.669 101.812 79.127 100.775 79.127 99.2782V68.4636ZM106.991 121.539C109.19 121.539 110.972 119.757 110.972 117.559C110.972 115.362 109.19 113.58 106.991 113.58C104.793 113.58 103.011 115.362 103.011 117.559C103.011 119.757 104.793 121.539 106.991 121.539ZM99.942 132.254C99.942 135.318 102.426 137.802 105.491 137.802C108.555 137.802 111.04 135.318 111.04 132.254C111.04 129.19 108.555 126.706 105.491 126.706C102.426 126.706 99.942 129.19 99.942 132.254ZM103.262 148.344C103.262 150.489 105.001 152.228 107.147 152.228C109.292 152.228 111.031 150.489 111.031 148.344C111.031 146.2 109.292 144.461 107.147 144.461C105.001 144.461 103.262 146.2 103.262 148.344ZM99.928 142.58C99.928 144.844 98.092 146.68 95.828 146.68C93.563 146.68 91.727 144.844 91.727 142.58C91.727 140.317 93.563 138.481 95.828 138.481C98.092 138.481 99.928 140.317 99.928 142.58ZM93.833 164.005C90.462 164.005 87.729 161.273 87.729 157.903C87.729 154.533 90.462 151.8 93.833 151.8C97.204 151.8 99.937 154.533 99.937 157.903C99.937 161.273 97.204 164.005 93.833 164.005ZM75.078 134.039C75.078 138.329 78.557 141.807 82.849 141.807C87.14 141.807 90.619 138.329 90.619 134.039C90.619 129.749 87.14 126.27 82.849 126.27C78.557 126.27 75.078 129.749 75.078 134.039ZM83.109 106.944C80.177 106.944 77.801 109.321 77.801 112.251C77.801 115.181 80.177 117.558 83.109 117.558C86.04 117.558 88.416 115.181 88.416 112.251C88.416 109.321 86.04 106.944 83.109 106.944Z" fill="url(#paint0_linear_423_3)"/>
<defs>
<linearGradient id="paint0_linear_423_3" x1="264" y1="303.999" x2="92.274" y2="-76.0374" gradientUnits="userSpaceOnUse">
<stop stop-color="#71399F"/>
<stop offset="0.107338" stop-color="#71399F"/>
<stop offset="0.797852" stop-color="#EC096D"/>
<stop offset="1" stop-color="#EC096D"/>
</linearGradient>
</defs>
</svg>
